<?xml version="1.0" encoding="UTF-8" standalone="no"?>
<svg width="18px" height="10px" viewBox="0 0 18 10" version="1.1" xmlns="http://www.w3.org/2000/svg" xmlns:xlink="http://www.w3.org/1999/xlink">
    <!-- Generator: Sketch 3.8.3 (29802) - http://www.bohemiancoding.com/sketch -->
    <title>mobile_nav</title>
    <desc>Created with Sketch.</desc>
    <defs></defs>
    <g id="UI_KIT" stroke="none" stroke-width="1" fill="none" fill-rule="evenodd">
        <g id="Icons" transform="translate(-418.000000, -1113.000000)" fill="#333333">
            <path d="M418.75,1114.25 C418.75,1113.83579 419.094626,1113.5 419.501846,1113.5 L434.498154,1113.5 C434.913387,1113.5 435.25,1113.8329 435.25,1114.25 C435.25,1114.66421 434.905374,1115 434.498154,1115 L419.501846,1115 C419.086613,1115 418.75,1114.6671 418.75,1114.25 Z M418.75,1118 C418.75,1117.58579 419.094626,1117.25 419.501846,1117.25 L434.498154,1117.25 C434.913387,1117.25 435.25,1117.5829 435.25,1118 C435.25,1118.41421 434.905374,1118.75 434.498154,1118.75 L419.501846,1118.75 C419.086613,1118.75 418.75,1118.4171 418.75,1118 Z M418.75,1121.75 C418.75,1121.33579 419.094626,1121 419.501846,1121 L434.498154,1121 C434.913387,1121 435.25,1121.3329 435.25,1121.75 C435.25,1122.16421 434.905374,1122.5 434.498154,1122.5 L419.501846,1122.5 C419.086613,1122.5 418.75,1122.1671 418.75,1121.75 Z" id="mobile_nav"></path>
        </g>
    </g>
</svg>